<?xml version="1.0" ?><!DOCTYPE svg  PUBLIC '-//W3C//DTD SVG 1.1//EN'  'http://www.w3.org/Graphics/SVG/1.1/DTD/svg11.dtd'><svg xmlns="http://www.w3.org/2000/svg" xmlns:xlink="http://www.w3.org/1999/xlink" xmlns:serif="http://www.serif.com/" width="100%" height="100%" viewBox="0 0 512 512" version="1.1" xml:space="preserve" style="fill-rule:evenodd;clip-rule:evenodd;stroke-linejoin:round;stroke-miterlimit:2;"><g transform="matrix(1,0,0,1,0,-562)"><g id="Icons"><path d="M84.949,785.761C85.549,783.999 86.197,782.057 86.802,780.173C87.502,777.992 88.111,776.022 88.515,774.494C88.91,772.999 89.073,772.039 89.073,772.039C89.33,769.847 87.758,767.858 85.566,767.601C83.373,767.344 81.384,768.916 81.128,771.109C81.128,771.109 81.065,772.081 81.104,773.626C81.144,775.206 81.281,777.264 81.458,779.547C81.619,781.624 81.813,783.775 81.998,785.705C77.638,785.894 74.09,787.318 71.518,789.545C70.751,790.21 70.059,790.951 69.451,791.763C67.903,789.932 65.916,787.609 63.988,785.43C62.47,783.716 61.086,782.187 59.978,781.059C58.894,779.957 58.152,779.326 58.152,779.326C56.398,777.987 53.885,778.323 52.545,780.078C51.206,781.832 51.542,784.345 53.297,785.685C53.297,785.685 54.101,786.234 55.449,786.99C56.829,787.762 58.668,788.694 60.722,789.707C63.387,791.021 66.215,792.355 68.409,793.375C66.777,796.321 66.1,800 66.674,804.24C64.411,804.665 61.652,805.199 59.025,805.75C56.784,806.22 54.77,806.666 53.242,807.071C51.748,807.467 50.833,807.8 50.833,807.8C48.8,808.662 47.849,811.011 48.711,813.044C49.572,815.076 51.922,816.027 53.955,815.166C53.955,815.166 54.83,814.739 56.154,813.941C57.508,813.125 59.228,811.988 61.125,810.704C63.187,809.309 65.317,807.821 67.114,806.551C68.064,810.276 70.03,812.821 72.46,814.412C73.319,814.974 74.259,815.412 75.262,815.728C74.549,817.423 73.779,819.285 73.054,821.094C72.203,823.22 71.458,825.143 70.948,826.639C70.449,828.102 70.218,829.048 70.218,829.048C69.808,831.217 71.237,833.311 73.406,833.721C75.575,834.131 77.669,832.703 78.079,830.533C78.079,830.533 78.21,829.568 78.279,828.024C78.351,826.445 78.358,824.383 78.342,822.093C78.328,820.146 78.29,818.133 78.245,816.296C81.212,816.529 84.487,815.88 87.665,814.372C88.618,815.86 89.661,817.469 90.688,819.015C91.955,820.923 93.115,822.628 94.057,823.897C94.978,825.139 95.626,825.866 95.626,825.866C97.179,827.435 99.714,827.447 101.283,825.894C102.852,824.341 102.865,821.806 101.312,820.237C101.312,820.237 100.591,819.582 99.36,818.648C98.1,817.693 96.407,816.516 94.512,815.23C93.239,814.365 91.923,813.49 90.669,812.664C91.888,811.85 93.072,810.901 94.195,809.82C103.634,804.418 112.327,797.259 120.315,788.465C122.771,785.762 124.507,782.115 125.756,778.133C140.403,807.372 156.784,831.836 175.482,849.743C170.575,849.168 165.668,849.019 160.761,849.334C155.798,849.654 150.589,851.942 145.252,854.519C141.005,856.569 136.654,858.803 132.197,859.806C131.452,859.617 130.71,859.457 129.976,859.325C130.667,857.31 131.453,854.972 132.178,852.716C132.877,850.536 133.486,848.565 133.89,847.037C134.285,845.543 134.449,844.583 134.449,844.583C134.705,842.39 133.134,840.401 130.941,840.145C128.748,839.888 126.76,841.459 126.503,843.652C126.503,843.652 126.44,844.624 126.479,846.169C126.519,847.749 126.656,849.807 126.833,852.09C127.015,854.434 127.238,856.871 127.444,858.98C121.742,858.455 116.651,859.733 113.545,862.796C112.254,861.283 110.792,859.588 109.363,857.974C107.845,856.259 106.461,854.73 105.353,853.603C104.269,852.5 103.527,851.87 103.527,851.87C101.773,850.53 99.261,850.867 97.921,852.621C96.581,854.376 96.918,856.888 98.672,858.228C98.672,858.228 99.476,858.778 100.825,859.533C102.204,860.305 104.043,861.237 106.097,862.25C108.018,863.197 110.023,864.155 111.815,864.998C110.602,867.002 109.906,869.523 110,872.65C110.049,874.274 110.256,875.739 110.599,877.058C108.659,877.428 106.488,877.855 104.4,878.293C102.159,878.764 100.145,879.209 98.617,879.614C97.123,880.011 96.208,880.343 96.208,880.343C94.175,881.205 93.225,883.555 94.086,885.587C94.948,887.62 97.297,888.57 99.33,887.709C99.33,887.709 100.206,887.282 101.529,886.484C102.883,885.668 104.603,884.531 106.5,883.247C108.22,882.084 109.987,880.855 111.568,879.743C112.549,881.799 113.937,883.392 115.594,884.609C117.161,885.759 119.044,886.559 121.158,887.037C120.312,889.034 119.335,891.377 118.43,893.637C117.579,895.763 116.833,897.686 116.323,899.182C115.824,900.645 115.594,901.591 115.594,901.591C115.184,903.76 116.612,905.854 118.781,906.264C120.951,906.674 123.045,905.246 123.455,903.077C123.455,903.077 123.585,902.112 123.655,900.567C123.726,898.988 123.734,896.926 123.717,894.636C123.699,892.179 123.643,889.617 123.583,887.435C126.473,887.747 129.685,887.555 133.042,886.919C133.995,888.406 135.037,890.013 136.063,891.559C137.33,893.466 138.49,895.172 139.432,896.441C140.354,897.682 141.002,898.409 141.002,898.409C142.555,899.978 145.089,899.991 146.658,898.438C148.227,896.884 148.24,894.35 146.687,892.781C146.687,892.781 145.967,892.125 144.735,891.192C143.475,890.237 141.782,889.059 139.887,887.773C139.039,887.197 138.171,886.616 137.316,886.048C144.965,884.351 152.631,881.785 160.296,878.333C171.32,887.054 182.712,892.77 194.476,895.216C193.902,906.866 189.11,924.591 186.56,944.025C183.621,966.425 183.614,990.954 195.043,1011.58C208.678,1036.18 229.246,1054.14 264.194,1061.13C274.509,1063.2 287.317,1061.54 300.96,1056.22C320.723,1048.52 342.36,1033.14 360.507,1010.97C376.931,990.896 392.499,973.204 408.803,962.205C424.293,951.755 440.423,947.508 458.666,953.719C462.914,955.166 465.746,952.921 466.759,950.301C467.718,947.823 467.181,944.318 463.555,942.301C439.81,929.093 418.521,933.393 398.193,945.613C385.254,953.39 372.704,964.447 360.149,976.028C344.894,990.1 329.625,1004.96 313.496,1015.26C298.107,1025.08 281.95,1030.73 264.182,1026.83C241.001,1021.74 230.076,1004 228.137,981.492C226.164,958.579 233.295,930.867 246.568,905.597C256.034,907.032 265.768,907.308 275.753,906.494C279.275,914.405 283.696,921.868 289.202,928.787C289.507,929.374 289.819,929.941 290.137,930.485C288.358,931.108 286.399,931.807 284.515,932.504C282.367,933.299 280.441,934.036 278.989,934.661C277.569,935.273 276.713,935.736 276.713,935.736C274.829,936.887 274.234,939.351 275.385,941.235C276.536,943.119 279,943.714 280.884,942.563C280.884,942.563 281.688,942.012 282.879,941.028C284.098,940.022 285.633,938.644 287.32,937.096C288.818,935.721 290.353,934.278 291.732,932.967C294.653,937.091 297.998,939.651 301.43,940.714C302.236,940.964 303.055,941.14 303.886,941.239C303.508,943.114 303.1,945.196 302.731,947.212C302.318,949.464 301.969,951.497 301.766,953.064C301.568,954.597 301.529,955.57 301.529,955.57C301.558,957.778 303.373,959.547 305.581,959.518C307.788,959.49 309.557,957.674 309.529,955.467C309.529,955.467 309.465,954.495 309.227,952.968C308.983,951.406 308.582,949.383 308.111,947.142C307.695,945.159 307.239,943.111 306.816,941.262C310.199,940.915 313.704,939.271 317.173,936.074C317.447,935.821 317.71,935.567 317.961,935.311C319.186,936.373 320.498,937.498 321.782,938.577C323.536,940.05 325.129,941.36 326.391,942.312C327.624,943.243 328.451,943.758 328.451,943.758C330.383,944.826 332.819,944.124 333.887,942.192C334.954,940.259 334.252,937.824 332.32,936.756C332.32,936.756 331.444,936.33 329.999,935.781C328.522,935.22 326.565,934.568 324.385,933.867C322.997,933.422 321.57,932.977 320.202,932.559C321.994,929.836 322.672,927.009 322.456,924.269C322.325,922.6 321.83,920.915 320.971,919.269C322.353,918.886 323.795,918.479 325.198,918.069C327.396,917.426 329.369,916.826 330.861,916.304C332.32,915.794 333.207,915.392 333.207,915.392C335.167,914.375 335.933,911.959 334.917,909.999C333.901,908.039 331.485,907.273 329.525,908.289C329.525,908.289 328.685,908.782 327.427,909.68C326.14,910.599 324.513,911.866 322.721,913.292C321.47,914.288 320.193,915.325 318.991,916.311C317.115,914.043 314.486,911.926 311.099,910.127C311.621,908.627 312.166,907.032 312.681,905.476C313.4,903.302 314.026,901.337 314.443,899.812C314.851,898.321 315.023,897.363 315.023,897.363C315.299,895.173 313.745,893.17 311.555,892.894C309.365,892.618 307.362,894.172 307.086,896.362C307.086,896.362 307.015,897.334 307.04,898.879C307.066,900.46 307.185,902.519 307.342,904.803C307.351,904.933 307.36,905.064 307.369,905.195C304.949,901.056 302.854,896.301 300.692,892.212C298.108,887.325 295.314,883.322 292.235,881.386C280.847,874.223 268.089,869.309 253.84,866.847C261.229,838.243 260.183,812.308 245.763,785.639C240.61,776.11 231.554,767.066 221.085,758.674C206.022,746.601 188.035,735.821 175.548,726.559C170.554,722.855 166.473,719.444 163.985,716.274C163.239,715.325 162.631,714.441 162.275,713.585C165.926,709.81 169.505,707.184 172.877,704.458C177.144,701.009 181.108,697.412 184.633,691.755C186.903,688.111 187.551,684.613 187.544,680.559C187.535,676.062 186.586,670.728 187.092,663.106C188.012,662.272 188.793,661.316 189.435,660.273C191.168,661.438 193.166,662.764 195.103,664.013C197.028,665.253 198.773,666.351 200.145,667.137C201.486,667.905 202.371,668.311 202.371,668.311C204.423,669.127 206.75,668.124 207.566,666.072C208.382,664.021 207.378,661.693 205.327,660.877C205.327,660.877 204.404,660.565 202.901,660.203C201.365,659.832 199.342,659.432 197.09,659.012C194.902,658.604 192.622,658.21 190.611,657.875C192.317,653.368 191.805,647.978 188.871,644.031C190.96,643.044 193.512,641.821 195.929,640.615C197.978,639.592 199.814,638.651 201.189,637.873C202.534,637.111 203.336,636.558 203.336,636.558C205.084,635.21 205.409,632.696 204.061,630.948C202.713,629.199 200.199,628.874 198.451,630.222C198.451,630.222 197.712,630.857 196.633,631.964C195.53,633.096 194.153,634.632 192.644,636.354C190.825,638.427 188.954,640.632 187.453,642.421C185.065,640.121 181.639,638.525 177.053,638.501C177.231,636.178 177.436,633.305 177.586,630.562C177.712,628.275 177.803,626.215 177.807,624.634C177.811,623.088 177.727,622.118 177.727,622.118C177.421,619.932 175.397,618.405 173.211,618.712C171.024,619.018 169.498,621.041 169.804,623.228C169.804,623.228 169.989,624.184 170.418,625.669C170.856,627.188 171.509,629.144 172.258,631.308C173.138,633.853 174.102,636.503 174.904,638.666C170.894,639.326 167.701,641.904 165.717,645.201C163.838,643.727 161.443,641.871 159.135,640.142C157.301,638.77 155.637,637.552 154.324,636.672C153.04,635.812 152.185,635.344 152.185,635.344C150.196,634.387 147.804,635.224 146.846,637.214C145.889,639.203 146.727,641.595 148.716,642.553C148.716,642.553 149.614,642.929 151.088,643.395C152.595,643.873 154.585,644.414 156.801,644.991C159.568,645.711 162.486,646.418 164.8,646.965C164.153,648.425 163.727,649.973 163.551,651.524C163.4,652.856 163.429,654.172 163.64,655.428C161.513,656.095 158.986,656.903 156.578,657.713C154.408,658.443 152.46,659.122 150.99,659.703C149.553,660.272 148.683,660.71 148.683,660.71C146.766,661.804 146.097,664.249 147.191,666.166C148.285,668.084 150.731,668.752 152.648,667.658C152.648,667.658 153.467,667.132 154.688,666.184C155.937,665.215 157.512,663.883 159.245,662.386C160.985,660.883 162.773,659.295 164.325,657.901C164.867,659.264 165.663,660.502 166.715,661.538C166.589,664.462 166.537,667.535 166.068,670.413C165.621,673.155 164.833,675.735 162.721,677.512C154.438,684.479 150.058,689.457 147.075,692.699C146.055,693.808 145.235,694.688 144.459,695.335C143.943,695.765 143.515,696.051 142.9,696.054C142.087,696.057 141.418,695.601 140.797,694.932C139.863,693.926 139.089,692.515 138.411,690.784C146.872,662.813 130.201,625.694 107.493,600.981C91.778,583.878 73.207,572.94 58.585,574.087C57.51,574.171 56.514,574.686 55.824,575.515C51.684,580.486 48.522,588.599 46.709,598.607C44.141,612.779 44.149,630.872 47.149,648.597C50.174,666.471 56.255,683.952 65.65,696.761C71.943,705.34 79.722,711.855 89.013,715.221L89.013,715.221C92.943,720.52 94.936,727.629 96.852,734.541C98.965,742.17 100.999,749.592 104.461,754.922C101.644,769.025 95.853,779.445 86.783,785.967C86.16,785.876 85.548,785.808 84.949,785.761ZM312.944,921.359C311.519,919.608 309.181,918.033 306.216,916.625C305.706,916.382 305.253,916.035 304.887,915.605C300.442,910.387 297.047,902.432 293.62,895.951C291.81,892.528 290.133,889.514 287.976,888.158C276.341,880.839 263.152,876.077 248.274,874.087C247.123,873.933 246.096,873.286 245.459,872.314C244.823,871.343 244.64,870.143 244.958,869.026C253,840.809 252.812,815.497 238.725,789.444C234.02,780.741 225.642,772.58 216.081,764.917C201.099,752.908 183.202,742.197 170.782,732.985C165.101,728.771 160.523,724.82 157.692,721.214C155.303,718.172 154.071,715.236 153.946,712.552C153.897,711.501 154.264,710.474 154.968,709.692C159.415,704.746 163.758,701.544 167.847,698.237C171.459,695.317 174.859,692.314 177.843,687.525C179.673,684.586 179.659,681.752 179.469,678.232C179.221,673.665 178.571,668.172 179.262,660.66C179.375,659.424 180.056,658.311 181.105,657.647C184.176,655.702 184.573,651.002 182.084,648.366C180.961,647.177 179.224,646.497 176.927,646.501C173.714,646.507 171.819,649.617 171.5,652.427C171.332,653.913 171.539,655.471 172.813,656.203C174.138,656.965 174.913,658.416 174.81,659.941C174.555,663.711 174.589,667.865 173.964,671.699C173.201,676.381 171.476,680.6 167.871,683.633C158.316,691.671 154.174,696.967 151.261,699.916C148.321,702.893 146.082,704.039 142.937,704.054C137.732,704.078 133.11,700.11 130.4,692.159C130.116,691.329 130.114,690.428 130.393,689.596C133.774,679.523 133.24,668.066 130.159,656.504C125.376,638.549 114.441,620.366 101.602,606.394C88.454,592.085 73.423,581.991 60.941,581.996C58.025,586.215 55.942,592.522 54.581,600.033C52.155,613.423 52.203,630.516 55.037,647.262C57.846,663.86 63.377,680.135 72.101,692.03C77.624,699.56 84.425,705.308 92.69,708.029C93.416,708.267 94.057,708.708 94.54,709.3C99.578,715.478 102.237,724.017 104.561,732.405C106.584,739.706 108.28,746.883 111.879,751.569C112.565,752.463 112.843,753.606 112.643,754.715C109.375,772.849 101.719,785.762 89.9,793.531C89.016,794.112 87.937,794.319 86.901,794.107C82.515,793.209 78.98,793.666 76.755,795.593C74.714,797.36 74.083,800.278 74.699,803.794C75.946,810.911 83.719,809.012 88.928,803.78C89.185,803.522 89.477,803.299 89.795,803.12C98.702,798.089 106.877,791.36 114.394,783.086C118.22,778.875 119.443,771.65 120.272,765.312C120.503,763.55 121.868,762.152 123.623,761.879C125.379,761.606 127.104,762.523 127.859,764.132C146.08,802.952 166.96,834.162 192.122,853.546C193.644,854.719 194.118,856.808 193.25,858.522C192.382,860.236 190.418,861.091 188.572,860.558C179.472,857.931 170.374,856.732 161.275,857.318C157.24,857.578 153.07,859.628 148.73,861.723C143.574,864.213 138.239,866.828 132.81,867.847C132.199,867.962 131.57,867.933 130.972,867.762C127.886,866.879 124.851,866.535 122.329,867.011C120.99,867.264 119.813,867.731 119.028,868.635C118.256,869.523 117.948,870.789 117.997,872.408C118.061,874.548 118.516,876.184 119.461,877.338C120.502,878.611 122.082,879.198 123.898,879.463C126.369,879.823 129.234,879.552 132.239,878.922C132.267,878.916 132.295,878.911 132.323,878.905C141.271,877.227 150.217,874.28 159.165,870.044C160.568,869.379 162.229,869.587 163.425,870.576C174.895,880.059 186.757,886.038 199.12,887.927C201.03,888.219 202.458,889.833 202.515,891.764C202.859,903.483 197.357,923.231 194.492,945.066C191.769,965.822 191.45,988.59 202.041,1007.7C214.598,1030.36 233.577,1046.85 265.764,1053.29C274.832,1055.1 286.063,1053.44 298.055,1048.77C316.745,1041.48 337.154,1026.87 354.315,1005.9C371.295,985.151 387.474,966.944 404.329,955.573C416.101,947.631 428.216,942.942 441.149,942.795C427.503,940.792 414.709,945.019 402.315,952.469C389.808,959.987 377.709,970.714 365.573,981.908C349.965,996.306 334.304,1011.46 317.801,1022C300.557,1033.01 282.377,1039.01 262.467,1034.64C235.494,1028.72 222.422,1008.36 220.167,982.178C218.012,957.159 225.946,926.68 240.88,899.272C241.703,897.762 243.399,896.947 245.092,897.248C255.664,899.125 266.601,899.419 277.873,898.266C279.631,898.086 281.299,899.081 281.975,900.713C285.436,909.065 289.922,916.904 295.696,924.098C295.87,924.314 296.02,924.548 296.145,924.795C298.738,929.916 301.612,933.117 305.117,933.313C307.283,933.433 309.472,932.292 311.752,930.191C313.618,928.471 314.624,926.713 314.481,924.896C314.384,923.663 313.861,922.5 312.982,921.406C312.895,921.428 312.85,921.44 312.85,921.44C312.85,921.44 312.882,921.412 312.944,921.359Z"/></g></g></svg>